<?xml version="1.0" encoding="UTF-8"?>
<svg version="1.1" xmlns="http://www.w3.org/2000/svg" width="210" height="210">
<path d="M0 0 C69.3 0 138.6 0 210 0 C210 69.3 210 138.6 210 210 C140.7 210 71.4 210 0 210 C0 140.7 0 71.4 0 0 Z " fill="#020202" transform="translate(0,0)"/>
<path d="M0 0 C1.134375 0.020625 2.26875 0.04125 3.4375 0.0625 C3.4375 1.0525 3.4375 2.0425 3.4375 3.0625 C5.9125 3.5575 5.9125 3.5575 8.4375 4.0625 C8.4375 4.7225 8.4375 5.3825 8.4375 6.0625 C9.4275 6.0625 10.4175 6.0625 11.4375 6.0625 C11.4375 5.4025 11.4375 4.7425 11.4375 4.0625 C13.9125 4.5575 13.9125 4.5575 16.4375 5.0625 C16.1075 6.7125 15.7775 8.3625 15.4375 10.0625 C14.1175 10.0625 12.7975 10.0625 11.4375 10.0625 C11.4375 9.4025 11.4375 8.7425 11.4375 8.0625 C10.86 7.93875 10.2825 7.815 9.6875 7.6875 C7.41414233 7.05601176 5.5121471 6.17391809 3.4375 5.0625 C3.4375 5.7225 3.4375 6.3825 3.4375 7.0625 C4.4275 7.0625 5.4175 7.0625 6.4375 7.0625 C6.4375 7.7225 6.4375 8.3825 6.4375 9.0625 C5.4475 9.0625 4.4575 9.0625 3.4375 9.0625 C3.4375 9.7225 3.4375 10.3825 3.4375 11.0625 C5.0875 11.0625 6.7375 11.0625 8.4375 11.0625 C8.4375 11.3925 8.4375 11.7225 8.4375 12.0625 C6.7875 12.0625 5.1375 12.0625 3.4375 12.0625 C3.4375 13.3825 3.4375 14.7025 3.4375 16.0625 C6.68733135 14.97465032 6.68733135 14.97465032 9.4375 13.0625 C12.10808851 12.92134839 14.76182238 13.02002893 17.4375 13.0625 C17.4375 12.4025 17.4375 11.7425 17.4375 11.0625 C19.9125 11.5575 19.9125 11.5575 22.4375 12.0625 C22.1075 13.3825 21.7775 14.7025 21.4375 16.0625 C20.67824219 15.95550781 19.91898438 15.84851563 19.13671875 15.73828125 C17.64591797 15.55845703 17.64591797 15.55845703 16.125 15.375 C14.64580078 15.18357422 14.64580078 15.18357422 13.13671875 14.98828125 C10.40450314 14.76741849 10.40450314 14.76741849 8.83203125 16.54296875 C8.37183594 17.04441406 7.91164062 17.54585937 7.4375 18.0625 C6.1175 18.0625 4.7975 18.0625 3.4375 18.0625 C3.4375 19.0525 3.4375 20.0425 3.4375 21.0625 C2.365 21.289375 1.2925 21.51625 0.1875 21.75 C-4.04422749 23.23110462 -5.40271131 24.17488036 -7.5625 28.0625 C-8.02938897 31.79761175 -7.84697587 34.28019135 -6.5625 37.8125 C-3.6547654 41.08370142 -0.71717491 41.76842093 3.4375 43.0625 C3.4375 44.0525 3.4375 45.0425 3.4375 46.0625 C4.613125 46.000625 4.613125 46.000625 5.8125 45.9375 C8.4375 46.0625 8.4375 46.0625 10.4375 48.0625 C14.27203269 48.31813551 17.70529887 47.94066497 21.4375 47.0625 C21.9325 49.5375 21.9325 49.5375 22.4375 52.0625 C20.78135343 52.44468767 19.11292976 52.77645102 17.4375 53.0625 C17.1075 52.7325 16.7775 52.4025 16.4375 52.0625 C15.303125 51.918125 14.16875 51.77375 13 51.625 C9.4375 51.0625 9.4375 51.0625 7.4375 49.0625 C5.36875966 48.4199765 5.36875966 48.4199765 3.4375 48.0625 C3.4375 49.0525 3.4375 50.0425 3.4375 51.0625 C5.0875 51.0625 6.7375 51.0625 8.4375 51.0625 C8.4375 51.7225 8.4375 52.3825 8.4375 53.0625 C6.7875 53.0625 5.1375 53.0625 3.4375 53.0625 C3.4375 53.7225 3.4375 54.3825 3.4375 55.0625 C4.4275 55.3925 5.4175 55.7225 6.4375 56.0625 C5.4475 56.0625 4.4575 56.0625 3.4375 56.0625 C3.4375 57.0525 3.4375 58.0425 3.4375 59.0625 C4.200625 58.5675 4.96375 58.0725 5.75 57.5625 C8.4375 56.0625 8.4375 56.0625 11.4375 56.0625 C11.4375 55.4025 11.4375 54.7425 11.4375 54.0625 C13.0875 54.0625 14.7375 54.0625 16.4375 54.0625 C16.4375 55.7125 16.4375 57.3625 16.4375 59.0625 C14.07341793 59.82238352 12.74736733 60.1445237 10.3125 59.5 C9.69375 59.355625 9.075 59.21125 8.4375 59.0625 C7.7775 59.7225 7.1175 60.3825 6.4375 61.0625 C5.4475 61.0625 4.4575 61.0625 3.4375 61.0625 C3.4375 62.0525 3.4375 63.0425 3.4375 64.0625 C0.7975 63.7325 -1.8425 63.4025 -4.5625 63.0625 C-4.8925 59.4325 -5.2225 55.8025 -5.5625 52.0625 C-6.8 53.073125 -8.0375 54.08375 -9.3125 55.125 C-12.96113781 58.10472088 -12.96113781 58.10472088 -15.62109375 57.91796875 C-19.0219723 56.41939249 -21.43031849 54.08552447 -23.5625 51.0625 C-23.65645739 47.11628959 -21.95766517 45.05645647 -19.5625 42.0625 C-19.2325 41.0725 -18.9025 40.0825 -18.5625 39.0625 C-21.8625 39.0625 -25.1625 39.0625 -28.5625 39.0625 C-29.80627393 36.57495214 -29.69556235 34.83594699 -29.6875 32.0625 C-29.69007812 31.175625 -29.69265625 30.28875 -29.6953125 29.375 C-29.5625 27.0625 -29.5625 27.0625 -28.5625 25.0625 C-26.27734375 24.6484375 -26.27734375 24.6484375 -23.5 24.4375 C-22.58089844 24.36273438 -21.66179687 24.28796875 -20.71484375 24.2109375 C-19.64943359 24.13746094 -19.64943359 24.13746094 -18.5625 24.0625 C-19.201875 22.99 -19.84125 21.9175 -20.5 20.8125 C-23.63371238 15.19887135 -23.63371238 15.19887135 -23.5625 13.0625 C-21.25 10.4375 -21.25 10.4375 -18.5625 8.0625 C-17.9025 7.4025 -17.2425 6.7425 -16.5625 6.0625 C-12.49773764 6.36359351 -8.97381304 9.02883261 -5.5625 11.0625 C-5.47162109 9.99708984 -5.47162109 9.99708984 -5.37890625 8.91015625 C-5.29511719 7.99105469 -5.21132812 7.07195313 -5.125 6.125 C-5.04378906 5.20847656 -4.96257812 4.29195312 -4.87890625 3.34765625 C-4.36077956 -0.39436982 -3.98403999 0.06989544 0 0 Z M-2.5625 2.0625 C-3.2225 5.3625 -3.8825 8.6625 -4.5625 12.0625 C-9.5625 11.0625 -9.5625 11.0625 -11.625 9.4375 C-13.43869125 7.85712212 -13.43869125 7.85712212 -15.5625 8.125 C-18.22645998 9.37373124 -19.7660403 10.73375594 -21.5625 13.0625 C-21.47676102 15.80614751 -20.69761631 16.90139978 -18.9375 19 C-17.5625 21.0625 -17.5625 21.0625 -17.875 23.8125 C-18.101875 24.555 -18.32875 25.2975 -18.5625 26.0625 C-21.5325 26.3925 -24.5025 26.7225 -27.5625 27.0625 C-27.5625 30.3625 -27.5625 33.6625 -27.5625 37.0625 C-23.9325 37.3925 -20.3025 37.7225 -16.5625 38.0625 C-18.2138076 43.6515411 -18.2138076 43.6515411 -20.3125 46.125 C-21.87199502 48.05096863 -21.87199502 48.05096863 -21.0625 50.625 C-19.28727465 53.50974119 -17.56062233 54.56343884 -14.5625 56.0625 C-13.675625 55.2375 -12.78875 54.4125 -11.875 53.5625 C-8.79006375 50.69279186 -8.35054741 51.0625 -3.5625 51.0625 C-3.2325 54.3625 -2.9025 57.6625 -2.5625 61.0625 C-1.2425 61.0625 0.0775 61.0625 1.4375 61.0625 C1.4375 55.4525 1.4375 49.8425 1.4375 44.0625 C-0.8725 43.0725 -3.1825 42.0825 -5.5625 41.0625 C-7.93882791 38.78760072 -8.49230326 37.63828038 -8.890625 34.37109375 C-8.86484375 33.42363281 -8.8390625 32.47617188 -8.8125 31.5 C-8.79703125 30.54996094 -8.7815625 29.59992188 -8.765625 28.62109375 C-8.5625 26.0625 -8.5625 26.0625 -7.5625 23.0625 C-4.6484429 21.72390666 -1.6472438 20.97488901 1.4375 20.0625 C1.4375 14.1225 1.4375 8.1825 1.4375 2.0625 C0.1175 2.0625 -1.2025 2.0625 -2.5625 2.0625 Z " fill="#8448B9" transform="translate(106.5625,51.9375)"/>
<path d="M0 0 C0.94875 0.04125 1.8975 0.0825 2.875 0.125 C2.215 0.785 1.555 1.445 0.875 2.125 C0.70822718 5.70843976 0.70822718 5.70843976 0.875 9.125 C-0.094375 9.599375 -1.06375 10.07375 -2.0625 10.5625 C-4.92977437 11.82693947 -4.92977437 11.82693947 -6.125 13.125 C-2.495 13.125 1.135 13.125 4.875 13.125 C5.205 14.775 5.535 16.425 5.875 18.125 C2.98265685 18.95138376 0.98757569 19.125 -2.125 19.125 C-2.785 22.425 -3.445 25.725 -4.125 29.125 C-5.445 29.455 -6.765 29.785 -8.125 30.125 C-7.465 30.785 -6.805 31.445 -6.125 32.125 C-7.445 32.125 -8.765 32.125 -10.125 32.125 C-10.455 31.135 -10.785 30.145 -11.125 29.125 C-12.218125 28.856875 -13.31125 28.58875 -14.4375 28.3125 C-18.125 27.125 -18.125 27.125 -20.5625 24.4375 C-22.40662346 20.52795827 -22.81140316 18.395953 -22.125 14.125 C-20.0625 10.75 -20.0625 10.75 -17.125 8.125 C-13.3125 7.25 -13.3125 7.25 -10.125 7.125 C-10.125 6.135 -10.125 5.145 -10.125 4.125 C-9.34125 3.83625 -8.5575 3.5475 -7.75 3.25 C-0.18382353 0.00735294 -0.18382353 0.00735294 0 0 Z " fill="#151024" transform="translate(120.125,65.875)"/>
<path d="M0 0 C1.98 0 3.96 0 6 0 C7.3417678 3.26743656 8.67194359 6.53946908 10 9.8125 C10.3815625 10.74126953 10.763125 11.67003906 11.15625 12.62695312 C11.5171875 13.51962891 11.878125 14.41230469 12.25 15.33203125 C12.58515625 16.15421143 12.9203125 16.9763916 13.265625 17.82348633 C14 20 14 20 14 23 C12.35 23 10.7 23 9 23 C8.505 20.525 8.505 20.525 8 18 C4.7 18 1.4 18 -2 18 C-2.33 19.65 -2.66 21.3 -3 23 C-4.65 23 -6.3 23 -8 23 C-7.32510673 18.93547423 -6.07017831 15.32959238 -4.5625 11.5 C-4.13066406 10.3965625 -3.69882813 9.293125 -3.25390625 8.15625 C-2.17317865 5.43591386 -1.08973667 2.71673885 0 0 Z " fill="#E2E2E2" transform="translate(130,124)"/>
<path d="M0 0 C0.86625 -0.01675781 1.7325 -0.03351563 2.625 -0.05078125 C5 0.3125 5 0.3125 6.8125 1.58203125 C8 3.3125 8 3.3125 8 7.3125 C6.35 7.3125 4.7 7.3125 3 7.3125 C3 6.3225 3 5.3325 3 4.3125 C0.69 4.3125 -1.62 4.3125 -4 4.3125 C-4 5.6325 -4 6.9525 -4 8.3125 C-3.39671875 8.42207031 -2.7934375 8.53164062 -2.171875 8.64453125 C6.59410915 10.3835894 6.59410915 10.3835894 9 13.3125 C9.59152429 16.78770521 9.39437743 18.59886465 7.6875 21.6875 C3.35653 24.30622605 -1.08458936 24.1926494 -6 23.3125 C-8.6875 21 -8.6875 21 -10 18.3125 C-10 17.3225 -10 16.3325 -10 15.3125 C-7.625 15.125 -7.625 15.125 -5 15.3125 C-4.01 16.7975 -4.01 16.7975 -3 18.3125 C0.56769552 19.04856499 0.56769552 19.04856499 4 19.3125 C3.83983208 17.33973636 3.83983208 17.33973636 3 15.3125 C1.01563955 14.2816244 1.01563955 14.2816244 -1.375 13.75 C-4.73148941 12.86987818 -6.8954769 12.16863849 -9 9.3125 C-8.875 5.75 -8.875 5.75 -8 2.3125 C-4.78169935 0.16696623 -3.73213493 0.01666132 0 0 Z " fill="#E2E2E2" transform="translate(109,123.6875)"/>
<path d="M0 0 C2.25 -0.375 2.25 -0.375 5 0 C7.3125 3 7.3125 3 9 6 C9.639375 5.195625 10.27875 4.39125 10.9375 3.5625 C13 1 13 1 14 0 C15.66617115 -0.04063832 17.33388095 -0.042721 19 0 C18.02254667 2.70679384 17.18026942 4.78634735 15.3125 7 C13.74220745 8.92957525 13.74220745 8.92957525 14.2578125 11.32421875 C15.03559873 14.12834279 16.10129617 16.30222675 17.5625 18.8125 C18.24505859 19.99779297 18.24505859 19.99779297 18.94140625 21.20703125 C19.29074219 21.79871094 19.64007813 22.39039063 20 23 C17.25 23.375 17.25 23.375 14 23 C11.75 20.0625 11.75 20.0625 10 17 C9.34 16.67 8.68 16.34 8 16 C7.690625 16.78375 7.38125 17.5675 7.0625 18.375 C6 21 6 21 5 23 C3.02 23 1.04 23 -1 23 C-0.65066406 22.40832031 -0.30132812 21.81664062 0.05859375 21.20703125 C0.51363281 20.41683594 0.96867187 19.62664062 1.4375 18.8125 C1.88996094 18.03519531 2.34242187 17.25789063 2.80859375 16.45703125 C4.06224387 13.87163477 4.77872322 11.86737832 5 9 C4.06552005 6.99648462 4.06552005 6.99648462 2.5625 5.3125 C0 2.16348774 0 2.16348774 0 0 Z " fill="#E7E7E7" transform="translate(63,124)"/>
<path d="M0 0 C1.67542976 0.28604898 3.34385343 0.61781233 5 1 C4.67 2.65 4.34 4.3 4 6 C1.36 5.67 -1.28 5.34 -4 5 C-3.67 5.99 -3.34 6.98 -3 8 C-3.59793673 10.35188447 -4.25881795 12.68925595 -5 15 C-6.32 15 -7.64 15 -9 15 C-9 14.34 -9 13.68 -9 13 C-11.31 13 -13.62 13 -16 13 C-16 12.34 -16 11.68 -16 11 C-14 9.375 -14 9.375 -12 8 C-14.97 7.67 -17.94 7.34 -21 7 C-20.67 5.02 -20.34 3.04 -20 1 C-19.42967041 1.00523682 -18.85934082 1.01047363 -18.27172852 1.01586914 C-15.70199677 1.03658221 -13.13228253 1.0496419 -10.5625 1.0625 C-9.66466797 1.07087891 -8.76683594 1.07925781 -7.84179688 1.08789062 C-6.56079102 1.09272461 -6.56079102 1.09272461 -5.25390625 1.09765625 C-4.46314697 1.10289307 -3.6723877 1.10812988 -2.85766602 1.11352539 C-0.98407311 1.20495909 -0.98407311 1.20495909 0 0 Z " fill="#6A449D" transform="translate(121,79)"/>
<path d="M0 0 C1.134375 0.020625 2.26875 0.04125 3.4375 0.0625 C3.4375 1.0525 3.4375 2.0425 3.4375 3.0625 C5.0875 3.3925 6.7375 3.7225 8.4375 4.0625 C8.4375 4.7225 8.4375 5.3825 8.4375 6.0625 C9.4275 6.0625 10.4175 6.0625 11.4375 6.0625 C11.4375 5.4025 11.4375 4.7425 11.4375 4.0625 C13.9125 4.5575 13.9125 4.5575 16.4375 5.0625 C16.1075 6.7125 15.7775 8.3625 15.4375 10.0625 C14.1175 10.0625 12.7975 10.0625 11.4375 10.0625 C11.4375 9.4025 11.4375 8.7425 11.4375 8.0625 C10.86 7.93875 10.2825 7.815 9.6875 7.6875 C7.41414233 7.05601176 5.5121471 6.17391809 3.4375 5.0625 C3.4375 5.7225 3.4375 6.3825 3.4375 7.0625 C4.4275 7.0625 5.4175 7.0625 6.4375 7.0625 C6.4375 7.7225 6.4375 8.3825 6.4375 9.0625 C5.4475 9.0625 4.4575 9.0625 3.4375 9.0625 C3.4375 9.7225 3.4375 10.3825 3.4375 11.0625 C5.0875 11.0625 6.7375 11.0625 8.4375 11.0625 C8.4375 11.3925 8.4375 11.7225 8.4375 12.0625 C6.7875 12.0625 5.1375 12.0625 3.4375 12.0625 C3.4375 13.3825 3.4375 14.7025 3.4375 16.0625 C6.68733135 14.97465032 6.68733135 14.97465032 9.4375 13.0625 C12.10808851 12.92134839 14.76182238 13.02002893 17.4375 13.0625 C17.4375 12.4025 17.4375 11.7425 17.4375 11.0625 C19.9125 11.5575 19.9125 11.5575 22.4375 12.0625 C22.1075 13.3825 21.7775 14.7025 21.4375 16.0625 C20.67824219 15.95550781 19.91898438 15.84851563 19.13671875 15.73828125 C17.64591797 15.55845703 17.64591797 15.55845703 16.125 15.375 C14.64580078 15.18357422 14.64580078 15.18357422 13.13671875 14.98828125 C10.40450314 14.76741849 10.40450314 14.76741849 8.83203125 16.54296875 C8.14173828 17.29513672 8.14173828 17.29513672 7.4375 18.0625 C6.1175 18.0625 4.7975 18.0625 3.4375 18.0625 C3.4375 19.0525 3.4375 20.0425 3.4375 21.0625 C1.7875 21.0625 0.1375 21.0625 -1.5625 21.0625 C-0.5725 20.7325 0.4175 20.4025 1.4375 20.0625 C1.4375 14.1225 1.4375 8.1825 1.4375 2.0625 C0.1175 2.0625 -1.2025 2.0625 -2.5625 2.0625 C-2.61148438 2.77277344 -2.66046875 3.48304687 -2.7109375 4.21484375 C-2.78570312 5.13394531 -2.86046875 6.05304687 -2.9375 7 C-3.00710937 7.91652344 -3.07671875 8.83304688 -3.1484375 9.77734375 C-3.28507812 10.53144531 -3.42171875 11.28554688 -3.5625 12.0625 C-4.5525 12.5575 -4.5525 12.5575 -5.5625 13.0625 C-6.2225 12.4025 -6.8825 11.7425 -7.5625 11.0625 C-6.9025 11.0625 -6.2425 11.0625 -5.5625 11.0625 C-5.50191406 10.35222656 -5.44132812 9.64195313 -5.37890625 8.91015625 C-5.25322266 7.53150391 -5.25322266 7.53150391 -5.125 6.125 C-5.04378906 5.20847656 -4.96257812 4.29195312 -4.87890625 3.34765625 C-4.36077956 -0.39436982 -3.98403999 0.06989544 0 0 Z " fill="#7845AD" transform="translate(106.5625,51.9375)"/>
<path d="M0 0 C3.17230063 0.36048871 5.23153527 1.67365145 7.75 3.5625 C8.67039062 4.24505859 8.67039062 4.24505859 9.609375 4.94140625 C10.06828125 5.29074219 10.5271875 5.64007813 11 6 C10.01 6.33 9.02 6.66 8 7 C7.195625 6.34 6.39125 5.68 5.5625 5 C3.26221674 2.76606991 3.26221674 2.76606991 0.875 3.0625 C-1.29999857 4.14999929 -2.59340504 5.00115454 -4 7 C-3.82624048 9.69327252 -3.1114853 10.86707522 -1.375 12.9375 C0 15 0 15 -0.25 17.6875 C-1 20 -1 20 -2 21 C-5.00331018 21.14193337 -7.99217134 21.04236378 -11 21 C-11 24.3 -11 27.6 -11 31 C-7.37 31.33 -3.74 31.66 0 32 C0 37.44328904 -0.52688181 38.20127698 -4 42 C-2.6608425 46.50443885 -1.04167548 47.7664425 3 50 C3 50.66 3 51.32 3 52 C-1.60995281 51.15634851 -4.32715678 48.78957908 -7 45 C-7.09395739 41.05378959 -5.39516517 38.99395647 -3 36 C-2.67 35.01 -2.34 34.02 -2 33 C-5.3 33 -8.6 33 -12 33 C-13.24377393 30.51245214 -13.13306235 28.77344699 -13.125 26 C-13.12757812 25.113125 -13.13015625 24.22625 -13.1328125 23.3125 C-13 21 -13 21 -12 19 C-9.71484375 18.5859375 -9.71484375 18.5859375 -6.9375 18.375 C-6.01839844 18.30023438 -5.09929687 18.22546875 -4.15234375 18.1484375 C-3.08693359 18.07496094 -3.08693359 18.07496094 -2 18 C-2.639375 16.9275 -3.27875 15.855 -3.9375 14.75 C-7.07121238 9.13637135 -7.07121238 9.13637135 -7 7 C-4.6875 4.375 -4.6875 4.375 -2 2 C-1.34 1.34 -0.68 0.68 0 0 Z " fill="#189EB9" transform="translate(90,58)"/>
<path d="M0 0 C0.94875 0.04125 1.8975 0.0825 2.875 0.125 C2.215 0.785 1.555 1.445 0.875 2.125 C0.70822718 5.70843976 0.70822718 5.70843976 0.875 9.125 C-4.34604066 12.70514217 -9.09012631 12.34537239 -15.296875 12.1328125 C-18.07608298 11.91317371 -18.07608298 11.91317371 -20.125 13.125 C-18.75516497 9.96384224 -18.1359362 9.1322908 -15.125 7.125 C-12.4375 7 -12.4375 7 -10.125 7.125 C-10.125 6.135 -10.125 5.145 -10.125 4.125 C-9.34125 3.83625 -8.5575 3.5475 -7.75 3.25 C-0.18382353 0.00735294 -0.18382353 0.00735294 0 0 Z " fill="#0F0918" transform="translate(120.125,65.875)"/>
<path d="M0 0 C0.70125 0.268125 1.4025 0.53625 2.125 0.8125 C3.2827506 4.28575181 3.19366652 7.17317448 3.125 10.8125 C4.445 10.8125 5.765 10.8125 7.125 10.8125 C7.125 9.4925 7.125 8.1725 7.125 6.8125 C7.785 6.8125 8.445 6.8125 9.125 6.8125 C9.125 7.4725 9.125 8.1325 9.125 8.8125 C9.888125 8.3175 10.65125 7.8225 11.4375 7.3125 C14.125 5.8125 14.125 5.8125 17.125 5.8125 C17.125 5.1525 17.125 4.4925 17.125 3.8125 C18.775 3.8125 20.425 3.8125 22.125 3.8125 C22.125 5.4625 22.125 7.1125 22.125 8.8125 C19.76091793 9.57238352 18.43486733 9.8945237 16 9.25 C15.38125 9.105625 14.7625 8.96125 14.125 8.8125 C13.465 9.4725 12.805 10.1325 12.125 10.8125 C11.135 10.8125 10.145 10.8125 9.125 10.8125 C9.125 11.8025 9.125 12.7925 9.125 13.8125 C6.485 13.4825 3.845 13.1525 1.125 12.8125 C0.795 9.1825 0.465 5.5525 0.125 1.8125 C-2.515 3.4625 -5.155 5.1125 -7.875 6.8125 C-8.205 6.1525 -8.535 5.4925 -8.875 4.8125 C-3.58269231 -0.23365385 -3.58269231 -0.23365385 0 0 Z " fill="#604599" transform="translate(100.875,102.1875)"/>
<path d="M0 0 C1.65 0 3.3 0 5 0 C5 7.59 5 15.18 5 23 C3.35 23 1.7 23 0 23 C0 15.41 0 7.82 0 0 Z " fill="#E7E7E7" transform="translate(88,124)"/>
<path d="M0 0 C0.66 0 1.32 0 2 0 C2 1.98 2 3.96 2 6 C3.65 6 5.3 6 7 6 C6.67 6.66 6.34 7.32 6 8 C4.68 7.67 3.36 7.34 2 7 C2 7.66 2 8.32 2 9 C0.081875 9.185625 0.081875 9.185625 -1.875 9.375 C-5.34790936 9.69042399 -5.34790936 9.69042399 -8 12 C-9.32 12 -10.64 12 -12 12 C-12 9.69 -12 7.38 -12 5 C-11.01 5 -10.02 5 -9 5 C-9 4.34 -9 3.68 -9 3 C-9.99 3 -10.98 3 -12 3 C-12 2.34 -12 1.68 -12 1 C-9.07120629 1.62759865 -6.63904371 2.58622659 -4 4 C-4 4.66 -4 5.32 -4 6 C-2.68 5.67 -1.36 5.34 0 5 C0 3.35 0 1.7 0 0 Z " fill="#210924" transform="translate(122,56)"/>
<path d="M0 0 C2.31 0.66 4.62 1.32 7 2 C6.67 4.64 6.34 7.28 6 10 C4.35 10.33 2.7 10.66 1 11 C1 10.34 1 9.68 1 9 C-1.31 9 -3.62 9 -6 9 C-6 7 -6 7 -4.125 5.0625 C-3.42375 4.381875 -2.7225 3.70125 -2 3 C-1.34 2.01 -0.68 1.02 0 0 Z " fill="#32133E" transform="translate(111,83)"/>
<path d="M0 0 C0.66 1.32 1.32 2.64 2 4 C3.65 4 5.3 4 7 4 C7 4.33 7 4.66 7 5 C5.35 5 3.7 5 2 5 C2 6.32 2 7.64 2 9 C5.24983135 7.91215032 5.24983135 7.91215032 8 6 C10.67058851 5.85884839 13.32432238 5.95752893 16 6 C16 5.34 16 4.68 16 4 C18.475 4.495 18.475 4.495 21 5 C20.67 6.32 20.34 7.64 20 9 C19.24074219 8.89300781 18.48148438 8.78601563 17.69921875 8.67578125 C16.20841797 8.49595703 16.20841797 8.49595703 14.6875 8.3125 C13.20830078 8.12107422 13.20830078 8.12107422 11.69921875 7.92578125 C8.96700314 7.70491849 8.96700314 7.70491849 7.39453125 9.48046875 C6.70423828 10.23263672 6.70423828 10.23263672 6 11 C4.68 11 3.36 11 2 11 C2 11.99 2 12.98 2 14 C0.35 14 -1.3 14 -3 14 C-2.01 13.67 -1.02 13.34 0 13 C0 8.71 0 4.42 0 0 Z " fill="#8847BA" transform="translate(108,59)"/>
<path d="M0 0 C4.875 0.875 4.875 0.875 6 2 C7.093125 2.12375 8.18625 2.2475 9.3125 2.375 C12.91099753 2.98491484 14.37548273 3.58544412 17 6 C16.01 6 15.02 6 14 6 C13.67 7.32 13.34 8.64 13 10 C13 8.68 13 7.36 13 6 C11.35 6 9.7 6 8 6 C8 6.66 8 7.32 8 8 C5.09451118 10.04169485 3.59857954 11 0 11 C0 9.02 0 7.04 0 5 C1.65 5 3.3 5 5 5 C5 4.34 5 3.68 5 3 C3.35 3 1.7 3 0 3 C0 2.01 0 1.02 0 0 Z " fill="#1B061D" transform="translate(110,100)"/>
<path d="M0 0 C0.66 0 1.32 0 2 0 C2 1.65 2 3.3 2 5 C3.32 5 4.64 5 6 5 C6.33 3.68 6.66 2.36 7 1 C8.65614657 0.61781233 10.32457024 0.28604898 12 0 C13 1 13 1 13.0625 3.5625 C13.041875 4.366875 13.02125 5.17125 13 6 C8.59085217 7.10228696 4.51617599 7.07654536 0 7 C0 4.69 0 2.38 0 0 Z " fill="#8C8C8C" transform="translate(91,152)"/>
<path d="M0 0 C1.65 0.33 3.3 0.66 5 1 C4.8125 3.375 4.8125 3.375 4 6 C0.33440697 7.93752774 -2.71055043 8.22384216 -6.8125 8.125 C-8.27623047 8.09792969 -8.27623047 8.09792969 -9.76953125 8.0703125 C-10.50558594 8.04710938 -11.24164063 8.02390625 -12 8 C-12 7.34 -12 6.68 -12 6 C-8.7 5.67 -5.4 5.34 -2 5 C-1.34 3.35 -0.68 1.7 0 0 Z " fill="#803CA8" transform="translate(116,70)"/>
<path d="M0 0 C2.22036575 0.86513291 3.8810383 1.92738029 5.78515625 3.35546875 C6.70554687 4.03802734 6.70554687 4.03802734 7.64453125 4.734375 C8.1034375 5.08371094 8.56234375 5.43304688 9.03515625 5.79296875 C8.04515625 6.12296875 7.05515625 6.45296875 6.03515625 6.79296875 C5.23078125 6.13296875 4.42640625 5.47296875 3.59765625 4.79296875 C1.29737299 2.55903866 1.29737299 2.55903866 -1.08984375 2.85546875 C-3.26484232 3.94296804 -4.55824879 4.79412329 -5.96484375 6.79296875 C-5.79006128 9.50209701 -5.02320901 10.71888976 -3.33984375 12.85546875 C-2.88609375 13.49484375 -2.43234375 14.13421875 -1.96484375 14.79296875 C-2.29484375 15.78296875 -2.62484375 16.77296875 -2.96484375 17.79296875 C-8.86138765 10.90512182 -8.86138765 10.90512182 -9.21484375 7.10546875 C-7.35792061 3.67016094 -4.29144298 -0.45217988 0 0 Z " fill="#437BBB" transform="translate(91.96484375,58.20703125)"/>
<path d="M0 0 C1.98 0 3.96 0 6 0 C6.41176754 3.60296594 6.1535853 4.78402067 4 7.8125 C3.34 8.534375 2.68 9.25625 2 10 C3.3391575 14.50443885 4.95832452 15.7664425 9 18 C9 18.66 9 19.32 9 20 C4.39004719 19.15634851 1.67284322 16.78957908 -1 13 C-1.09395739 9.05378959 0.60483483 6.99395647 3 4 C3.33 3.01 3.66 2.02 4 1 C2.68 0.67 1.36 0.34 0 0 Z " fill="#3289BA" transform="translate(84,90)"/>
<path d="M0 0 C0.66 0 1.32 0 2 0 C2 2 2 2 -0.4375 4.5625 C-1.283125 5.366875 -2.12875 6.17125 -3 7 C-4.36607015 8.14913969 -4.36607015 8.14913969 -4.25 11.25 C-3.98143376 15.27849357 -3.66298748 16.99340123 -1 20 C2.57996259 21.36900354 2.57996259 21.36900354 6 22 C5.01 22.66 4.02 23.32 3 24 C-0.10275605 23.28397937 -1.87567274 22.10416609 -4.3125 20.0625 C-6.84253844 15.47094875 -6.92343871 11.12508483 -6 6 C-3.5625 2.875 -3.5625 2.875 -1 1 C-0.67 0.67 -0.34 0.34 0 0 Z " fill="#5D68BC" transform="translate(103,72)"/>
<path d="M0 0 C1.65 0 3.3 0 5 0 C5 1.65 5 3.3 5 5 C2.63591793 5.75988352 1.30986733 6.0820237 -1.125 5.4375 C-2.053125 5.2209375 -2.053125 5.2209375 -3 5 C-3.66 5.66 -4.32 6.32 -5 7 C-6.32 7 -7.64 7 -9 7 C-9 6.34 -9 5.68 -9 5 C-6.02588876 3.76078698 -3.14737182 2.69941596 0 2 C0 1.34 0 0.68 0 0 Z " fill="#AC2CBE" transform="translate(118,106)"/>
<path d="M0 0 C2.31 0 4.62 0 7 0 C7 0.99 7 1.98 7 3 C8.65 3 10.3 3 12 3 C12.33 2.01 12.66 1.02 13 0 C13 1.32 13 2.64 13 4 C11.35 4 9.7 4 8 4 C8 4.66 8 5.32 8 6 C5.36 5.34 2.72 4.68 0 4 C0 2.68 0 1.36 0 0 Z " fill="#242424" transform="translate(105,128)"/>
<path d="M0 0 C1.65 0.33 3.3 0.66 5 1 C4.67 2.65 4.34 4.3 4 6 C2.68 6 1.36 6 0 6 C0 5.34 0 4.68 0 4 C-2.31 4 -4.62 4 -7 4 C-7 3.34 -7 2.68 -7 2 C-4.69 2 -2.38 2 0 2 C0 1.34 0 0.68 0 0 Z " fill="#943FBF" transform="translate(112,88)"/>
<path d="M0 0 C1.65 0 3.3 0 5 0 C5.625 2.375 5.625 2.375 6 5 C5.34 5.66 4.68 6.32 4 7 C2.68 7 1.36 7 0 7 C0 4.69 0 2.38 0 0 Z " fill="#949494" transform="translate(62,152)"/>
<path d="M0 0 C-1.32 0.33 -2.64 0.66 -4 1 C-4 1.66 -4 2.32 -4 3 C-6.90548882 5.04169485 -8.40142046 6 -12 6 C-12 4.02 -12 2.04 -12 0 C-7.66726186 -0.92844389 -4.33273814 -0.92844389 0 0 Z " fill="#240E2E" transform="translate(122,105)"/>
<path d="M0 0 C1.67542976 0.28604898 3.34385343 0.61781233 5 1 C4.67 2.65 4.34 4.3 4 6 C0.125 5.125 0.125 5.125 -1 4 C-2.34747084 3.76924918 -3.70377565 3.58846937 -5.0625 3.4375 C-6.361875 3.293125 -7.66125 3.14875 -9 3 C-9 2.67 -9 2.34 -9 2 C-6.94921875 1.77213542 -4.8984375 1.54427083 -2.84765625 1.31640625 C-0.98859771 1.18113386 -0.98859771 1.18113386 0 0 Z " fill="#C221C1" transform="translate(121,79)"/>
<path d="M0 0 C0.66 0 1.32 0 2 0 C2.66 0.99 3.32 1.98 4 3 C4.33 2.01 4.66 1.02 5 0 C5.99 0 6.98 0 8 0 C8 2.31 8 4.62 8 7 C6.68 7 5.36 7 4 7 C3.34 6.34 2.68 5.68 2 5 C1.34 5.66 0.68 6.32 0 7 C0 4.69 0 2.38 0 0 Z " fill="#BEBEBE" transform="translate(114,152)"/>
<path d="M0 0 C0.33 0.66 0.66 1.32 1 2 C3.31 2 5.62 2 8 2 C8 2.66 8 3.32 8 4 C9.32 4.33 10.64 4.66 12 5 C10.68 5.33 9.36 5.66 8 6 C8.66 6.66 9.32 7.32 10 8 C8.68 8 7.36 8 6 8 C5.67 7.01 5.34 6.02 5 5 C2.67793475 4.29508733 0.34406932 3.62787571 -2 3 C-2.33 2.34 -2.66 1.68 -3 1 C-2.01 0.67 -1.02 0.34 0 0 Z " fill="#190F28" transform="translate(104,90)"/>
<path d="M0 0 C1.65 0.33 3.3 0.66 5 1 C4.67 2.65 4.34 4.3 4 6 C2.68 6 1.36 6 0 6 C0 5.34 0 4.68 0 4 C-1.32 3.67 -2.64 3.34 -4 3 C-3.67 2.34 -3.34 1.68 -3 1 C-2.01 1.33 -1.02 1.66 0 2 C0 1.34 0 0.68 0 0 Z " fill="#B527BE" transform="translate(118,56)"/>
<path d="M0 0 C0.70125 0.268125 1.4025 0.53625 2.125 0.8125 C2.125 3.4525 2.125 6.0925 2.125 8.8125 C0.125 6.8125 0.125 6.8125 0 4.1875 C0.04125 3.40375 0.0825 2.62 0.125 1.8125 C-2.515 3.4625 -5.155 5.1125 -7.875 6.8125 C-8.205 6.1525 -8.535 5.4925 -8.875 4.8125 C-3.58269231 -0.23365385 -3.58269231 -0.23365385 0 0 Z " fill="#5462AE" transform="translate(100.875,102.1875)"/>
<path d="M0 0 C1.65 0.33 3.3 0.66 5 1 C4.67 2.65 4.34 4.3 4 6 C0.65626525 5.44271087 -2.03312999 4.64826111 -5 3 C-3.35 3 -1.7 3 0 3 C0 2.01 0 1.02 0 0 Z " fill="#C711B4" transform="translate(124,99)"/>
<path d="M0 0 C1.65 0 3.3 0 5 0 C5.33 1.32 5.66 2.64 6 4 C4.68 4.33 3.36 4.66 2 5 C2 5.66 2 6.32 2 7 C1.34 7 0.68 7 0 7 C0 4.69 0 2.38 0 0 Z " fill="#9C9C9C" transform="translate(106,152)"/>
<path d="M0 0 C0 0.66 0 1.32 0 2 C-1.27875 2.12375 -2.5575 2.2475 -3.875 2.375 C-7.34790936 2.69042399 -7.34790936 2.69042399 -10 5 C-11.32 5 -12.64 5 -14 5 C-14 3.68 -14 2.36 -14 1 C-9.32798795 -0.20568053 -4.78503708 -0.09382426 0 0 Z " fill="#36113D" transform="translate(124,63)"/>
<path d="M0 0 C1.65 0.33 3.3 0.66 5 1 C4.67 2.32 4.34 3.64 4 5 C3.29875 4.855625 2.5975 4.71125 1.875 4.5625 C-1.07556141 3.98521625 -4.03270151 3.48304859 -7 3 C-7 2.67 -7 2.34 -7 2 C-4.69 2 -2.38 2 0 2 C0 1.34 0 0.68 0 0 Z " fill="#D915C9" transform="translate(124,63)"/>
<path d="M0 0 C1.98 0 3.96 0 6 0 C4.68 0.33 3.36 0.66 2 1 C2 1.66 2 2.32 2 3 C2.99 3.33 3.98 3.66 5 4 C5.33 4.99 5.66 5.98 6 7 C4.02 7 2.04 7 0 7 C0 4.69 0 2.38 0 0 Z " fill="#AAAAAA" transform="translate(123,152)"/>
<path d="M0 0 C0.66 0 1.32 0 2 0 C2.33 0.66 2.66 1.32 3 2 C3.33 1.34 3.66 0.68 4 0 C4.66 0 5.32 0 6 0 C6 2.31 6 4.62 6 7 C5.01 6.67 4.02 6.34 3 6 C2.67 5.34 2.34 4.68 2 4 C1.34 4.99 0.68 5.98 0 7 C0 4.69 0 2.38 0 0 Z " fill="#B9B9B9" transform="translate(131,152)"/>
<path d="M0 0 C2.97 0 5.94 0 9 0 C8.01 1.485 8.01 1.485 7 3 C6.01 3 5.02 3 4 3 C3.67 3.66 3.34 4.32 3 5 C2.01 4.34 1.02 3.68 0 3 C0 2.01 0 1.02 0 0 Z " fill="#030307" transform="translate(100,87)"/>
<path d="M0 0 C1.65 0 3.3 0 5 0 C4.01 0.33 3.02 0.66 2 1 C2 1.66 2 2.32 2 3 C2.99 3.33 3.98 3.66 5 4 C5.33 4.99 5.66 5.98 6 7 C4.02 7 2.04 7 0 7 C0 4.69 0 2.38 0 0 Z " fill="#B3B3B3" transform="translate(84,152)"/>
<path d="M0 0 C0.66 0 1.32 0 2 0 C2.66 2.31 3.32 4.62 4 7 C2.02 7 0.04 7 -2 7 C-1.34 4.69 -0.68 2.38 0 0 Z " fill="#383838" transform="translate(132,131)"/>
<path d="M0 0 C6.625 -0.25 6.625 -0.25 10 2 C7.24075815 3.80411967 6.11027897 4.0127245 2.75 3.625 C1.8425 3.41875 0.935 3.2125 0 3 C0 2.01 0 1.02 0 0 Z " fill="#41316C" transform="translate(101,80)"/>
<path d="M0 0 C1.65 0 3.3 0 5 0 C5 2.33333333 5 4.66666667 5 7 C3.35 7 1.7 7 0 7 C0 4.69 0 2.38 0 0 Z " fill="#BABABA" transform="translate(70,152)"/>
<path d="M0 0 C0 2.31 0 4.62 0 7 C-0.66 7 -1.32 7 -2 7 C-2 6.34 -2 5.68 -2 5 C-3.32 4.67 -4.64 4.34 -6 4 C-6 3.01 -6 2.02 -6 1 C-3.92446352 0.4465236 -2.15634036 0 0 0 Z " fill="#333333" transform="translate(131,152)"/>
<path d="M0 0 C4.70588235 0.70588235 4.70588235 0.70588235 6 2 C8.33297433 2.04092937 10.66705225 2.04241723 13 2 C13 2.66 13 3.32 13 4 C6.9453125 4.9765625 6.9453125 4.9765625 5 5 C4.34 4.34 3.68 3.68 3 3 C1.68252676 2.30251417 0.35085807 1.63040043 -1 1 C-0.67 0.67 -0.34 0.34 0 0 Z " fill="#892B9F" transform="translate(111,98)"/>
<path d="M0 0 C2.475 0.495 2.475 0.495 5 1 C5 2.32 5 3.64 5 5 C3.35 5 1.7 5 0 5 C0 3.35 0 1.7 0 0 Z " fill="#B62BC6" transform="translate(116,70)"/>
<path d="M0 0 C0.99 0.33 1.98 0.66 3 1 C3.66 0.67 4.32 0.34 5 0 C4.67 2.31 4.34 4.62 4 7 C3.01 7 2.02 7 1 7 C0.67 4.69 0.34 2.38 0 0 Z " fill="#B5B5B5" transform="translate(77,152)"/>
<path d="M0 0 C0.33 1.98 0.66 3.96 1 6 C0.01 6.33 -0.98 6.66 -2 7 C-2 6.34 -2 5.68 -2 5 C-3.32 4.67 -4.64 4.34 -6 4 C-5.01 3.67 -4.02 3.34 -3 3 C-3.66 2.34 -4.32 1.68 -5 1 C-2 0 -2 0 0 0 Z " fill="#242424" transform="translate(77,152)"/>
<path d="M0 0 C0.66 0.33 1.32 0.66 2 1 C2.144375 1.598125 2.28875 2.19625 2.4375 2.8125 C2.87601561 5.12814213 2.87601561 5.12814213 4.625 7.0625 C5.07875 7.701875 5.5325 8.34125 6 9 C5.67 9.99 5.34 10.98 5 12 C3.96386967 10.76265016 2.94652198 9.50955363 1.9375 8.25 C1.36902344 7.55390625 0.80054687 6.8578125 0.21484375 6.140625 C-1 4 -1 4 -0.68359375 1.734375 C-0.45800781 1.16203125 -0.23242188 0.5896875 0 0 Z " fill="#2F97C7" transform="translate(84,64)"/>
<path d="M0 0 C0.94875 0.04125 1.8975 0.0825 2.875 0.125 C1.16874499 2.90888975 0.39873261 3.97884206 -2.8125 4.875 C-3.9571875 4.99875 -3.9571875 4.99875 -5.125 5.125 C-5.125 0.85616396 -4.22482433 0.16899297 0 0 Z " fill="#2A0C2D" transform="translate(120.125,65.875)"/>
<path d="M0 0 C2 2 2 2 2.046875 4.12890625 C1.94890625 4.93199219 1.8509375 5.73507813 1.75 6.5625 C1.61851563 7.77099609 1.61851563 7.77099609 1.484375 9.00390625 C1.32453125 9.66261719 1.1646875 10.32132813 1 11 C0.01 11.495 0.01 11.495 -1 12 C-1.66 11.34 -2.32 10.68 -3 10 C-2.34 10 -1.68 10 -1 10 C-0.67 6.7 -0.34 3.4 0 0 Z " fill="#5A55A7" transform="translate(102,53)"/>
<path d="M0 0 C1.0828125 0.9590625 1.0828125 0.9590625 2.1875 1.9375 C4.98191184 3.98673535 6.61663274 4.61332946 10 5 C9.01 5.66 8.02 6.32 7 7 C3.00800942 6.00200236 1.17993421 4.44200138 -1 1 C-0.67 0.67 -0.34 0.34 0 0 Z " fill="#5C54A3" transform="translate(99,89)"/>
<path d="M0 0 C0.66 0.99 1.32 1.98 2 3 C0 5 0 5 -1.9453125 5.1953125 C-3.96354167 5.13020833 -5.98177083 5.06510417 -8 5 C-6.8125 3.5 -6.8125 3.5 -5 2 C-2.3125 1.8125 -2.3125 1.8125 0 2 C0 1.34 0 0.68 0 0 Z " fill="#1F6588" transform="translate(88,74)"/>
</svg>
